<?xml version="1.0" encoding="UTF-8" standalone="no"?>
<!DOCTYPE svg PUBLIC "-//W3C//DTD SVG 1.1//EN" "http://www.w3.org/Graphics/SVG/1.1/DTD/svg11.dtd">
<svg width="100%" height="100%" viewBox="0 0 40 40" version="1.1" xmlns="http://www.w3.org/2000/svg" xmlns:xlink="http://www.w3.org/1999/xlink" xml:space="preserve" xmlns:serif="http://www.serif.com/" style="fill-rule:evenodd;clip-rule:evenodd;">
    <g transform="matrix(1,0,0,1,-325.72,-322.24)">
        <g transform="matrix(1,0,0,1,182.337,127.098)">
            <g transform="matrix(0.973101,0,0,0.973204,67.5047,-219.857)">
                <g id="Pfad_32" transform="matrix(1,0,0,1,82.6634,431.11)">
                    <path d="M15.413,0C23.868,0 30.826,6.958 30.826,15.413C30.826,23.868 23.868,30.826 15.413,30.826C6.958,30.826 0,23.868 0,15.413C0,6.958 6.958,0 15.413,0Z" style="fill:white;fill-rule:nonzero;"/>
                </g>
                <g transform="matrix(1,0,0,1,82.6634,431.11)">
                    <circle cx="15.413" cy="15.413" r="15.413" style="fill:none;"/>
                </g>
                <g transform="matrix(1,0,0,1,82.6634,431.11)">
                    <circle cx="15.413" cy="15.413" r="13.913" style="fill:none;stroke:rgb(147,147,147);stroke-width:3px;"/>
                </g>
                <g id="Differenzmenge_9" transform="matrix(1,0,0,1,82.6634,431.11)">
                    <path d="M22.631,24.598C19.442,24.598 15.439,24.549 15.27,24.547C15.23,24.547 11.217,24.565 8.023,24.565C6.142,24.565 4.9,24.559 4.333,24.547C3.393,24.432 2.484,22.511 1.659,22.045C-0.382,18.069 -0.546,13.384 1.212,9.275C1.987,7.467 3.108,5.827 4.512,4.448C8.976,0.084 15.647,-1.201 21.412,1.193C23.24,1.953 24.903,3.058 26.312,4.448C27.715,5.827 28.836,7.467 29.612,9.275C31.34,13.313 31.213,17.912 29.265,21.849C28.326,22.37 27.308,24.356 26.252,24.547C25.74,24.581 24.52,24.598 22.631,24.598Z" style="fill:rgb(147,147,147);fill-rule:nonzero;"/>
                </g>
                <g transform="matrix(1,0,0,-1,15.9943,634.106)">
                    <g id="Pfad_321" serif:id="Pfad_32" transform="matrix(1,0,0,1,66.6658,172.17)">
                        <path d="M15.458,13.479C23.913,13.479 30.826,6.958 30.826,15.413C30.826,23.868 23.868,30.826 15.413,30.826C6.958,30.826 0,23.868 0,15.413C0,6.958 7.003,13.479 15.458,13.479Z" style="fill:white;fill-rule:nonzero;"/>
                    </g>
                    <g id="Ellipse_42" transform="matrix(1,0,0,1,66.6658,172.17)">
                        <circle cx="15.413" cy="15.413" r="15.413" style="fill:none;"/>
                        <path d="M15.458,13.626C23.137,13.626 29.326,7.734 29.326,15.413C29.326,23.092 23.092,29.326 15.413,29.326C7.734,29.326 1.5,23.092 1.5,15.413C1.5,7.734 7.779,13.626 15.458,13.626Z" style="fill:none;stroke:rgb(147,147,147);stroke-width:3px;"/>
                    </g>
                    <g id="Differenzmenge_91" serif:id="Differenzmenge_9" transform="matrix(1,-2.25993e-17,-2.25993e-17,0.815463,66.6658,176.41)">
                        <path d="M22.631,24.72C19.442,24.72 15.439,24.671 15.27,24.669C15.23,24.669 11.217,24.687 8.023,24.687C6.142,24.687 4.9,24.681 4.333,24.669C3.393,24.555 2.484,22.511 1.659,22.045C1.119,20.993 0.415,12.928 3.341,10.376C5.94,8.109 11.934,11.27 15.413,11.249C18.615,11.23 25.336,7.794 27.864,9.788C31.183,12.406 29.818,20.731 29.265,21.849C28.326,22.37 27.308,24.479 26.252,24.669C25.74,24.703 24.52,24.72 22.631,24.72Z" style="fill:rgb(147,147,147);fill-rule:nonzero;"/>
                    </g>
                </g>
                <g transform="matrix(0.830195,0,0,0.830195,14.5645,71.7555)">
                    <g id="Pfad_29" transform="matrix(1,0,0,1,-6831.73,291.441)">
                        <path d="M6925.86,154.189L6929.53,158.165L6933.29,154.189" style="fill:none;fill-rule:nonzero;stroke:white;stroke-width:2.5px;stroke-linecap:round;"/>
                    </g>
                    <g id="Linie_36" transform="matrix(1,0,0,1,97.6796,437.821)">
                        <path d="M0.045,2.421L0,11.188" style="fill:none;fill-rule:nonzero;stroke:white;stroke-width:2.5px;stroke-linecap:round;"/>
                    </g>
                </g>
                <g transform="matrix(0.830195,-3.18427e-32,3.18494e-32,-0.830195,19.4583,820.392)">
                    <g id="Pfad_291" serif:id="Pfad_29" transform="matrix(1,0,0,1,-6831.73,291.441)">
                        <path d="M6925.86,154.189L6929.53,158.165L6933.29,154.189" style="fill:none;fill-rule:nonzero;stroke:white;stroke-width:2.5px;stroke-linecap:round;"/>
                    </g>
                    <g id="Linie_361" serif:id="Linie_36" transform="matrix(1,0,0,1,97.6796,437.821)">
                        <path d="M0.051,1L0,11.188" style="fill:none;fill-rule:nonzero;stroke:white;stroke-width:2.5px;stroke-linecap:round;"/>
                    </g>
                </g>
            </g>
        </g>
    </g>
</svg>
