<?xml version="1.0" encoding="UTF-8" standalone="no"?>
<!DOCTYPE svg PUBLIC "-//W3C//DTD SVG 1.1//EN" "http://www.w3.org/Graphics/SVG/1.1/DTD/svg11.dtd">
<svg width="100%" height="100%" viewBox="0 0 28 27" version="1.1" xmlns="http://www.w3.org/2000/svg" xmlns:xlink="http://www.w3.org/1999/xlink" xml:space="preserve" xmlns:serif="http://www.serif.com/" style="fill-rule:evenodd;clip-rule:evenodd;stroke-linecap:round;stroke-linejoin:round;stroke-miterlimit:1.5;">
    <g transform="matrix(1,0,0,1,-392.246,-183.095)">
        <g transform="matrix(1,0,0,1,0,-20)">
            <g transform="matrix(0.739201,0,0,0.75611,109.004,-2555.53)">
                <path d="M417.963,3653.96C417.963,3652.01 416.346,3650.43 414.355,3650.43L397.516,3650.43C395.525,3650.43 393.908,3652.01 393.908,3653.96L393.908,3674.53C393.908,3676.48 391.041,3681.18 385.202,3682.03L414.355,3682.03C416.346,3682.03 417.963,3681.24 417.963,3681.14L417.963,3653.96Z" style="fill:rgb(156,156,156);"/>
                <path d="M414.499,3648.45L414.643,3648.45L414.786,3648.46L414.929,3648.47L415.07,3648.49L415.211,3648.51L415.35,3648.53L415.489,3648.56L415.626,3648.59L415.762,3648.62L415.897,3648.66L416.03,3648.7L416.163,3648.74L416.293,3648.78L416.422,3648.83L416.55,3648.88L416.676,3648.93L416.8,3648.99L416.922,3649.05L417.043,3649.11L417.162,3649.18L417.279,3649.25L417.395,3649.32L417.508,3649.39L417.619,3649.47L417.729,3649.54L417.836,3649.62L417.941,3649.71L418.044,3649.79L418.145,3649.88L418.244,3649.97L418.341,3650.06L418.435,3650.16L418.527,3650.25L418.616,3650.35L418.704,3650.45L418.788,3650.56L418.871,3650.66L418.951,3650.77L419.028,3650.88L419.102,3650.99L419.174,3651.1L419.243,3651.21L419.31,3651.33L419.374,3651.45L419.435,3651.57L419.493,3651.69L419.548,3651.81L419.6,3651.94L419.649,3652.06L419.695,3652.19L419.738,3652.32L419.778,3652.45L419.815,3652.58L419.848,3652.72L419.878,3652.85L419.904,3652.98L419.927,3653.12L419.947,3653.26L419.963,3653.4L419.976,3653.54L419.985,3653.68L419.99,3653.82L419.992,3653.95L419.992,3681.14L419.986,3681.3L419.967,3681.46L419.936,3681.61L419.934,3681.62L419.896,3681.75L419.847,3681.88L419.789,3682.01L419.722,3682.14L419.718,3682.14L419.658,3682.24L419.593,3682.33L419.523,3682.42L419.517,3682.43L419.447,3682.51L419.374,3682.58L419.365,3682.59L419.296,3682.65L419.223,3682.71L419.139,3682.78L419.002,3682.87L418.887,3682.94L418.78,3683L418.676,3683.05L418.57,3683.11L418.461,3683.16L418.346,3683.21L418.226,3683.26L418.101,3683.31L417.969,3683.36L417.831,3683.41L417.687,3683.46L417.536,3683.51L417.379,3683.56L417.216,3683.61L417.047,3683.65L416.872,3683.7L416.691,3683.74L416.505,3683.78L416.313,3683.82L416.115,3683.86L415.912,3683.89L415.704,3683.92L415.49,3683.95L415.272,3683.97L415.055,3683.99L414.937,3683.99L414.822,3684L414.707,3684.01L414.59,3684.01L414.473,3684.01L414.361,3684.01L385.202,3684.01L385.043,3684.01L384.884,3683.99L384.728,3683.96L384.575,3683.91L384.425,3683.86L384.28,3683.8L384.141,3683.72L384.008,3683.63L383.883,3683.54L383.766,3683.43L383.658,3683.32L383.559,3683.19L383.471,3683.06L383.393,3682.93L383.327,3682.78L383.272,3682.64L383.228,3682.49L383.198,3682.34L383.179,3682.18L383.173,3682.03L383.18,3681.87L383.199,3681.71L383.23,3681.56L383.273,3681.41L383.329,3681.26L383.396,3681.12L383.474,3680.99L383.563,3680.86L383.662,3680.74L383.771,3680.62L383.888,3680.52L384.014,3680.42L384.146,3680.33L384.286,3680.26L384.431,3680.19L384.581,3680.14L384.734,3680.1L384.891,3680.07L385.016,3680.05L385.128,3680.03L385.239,3680.01L385.349,3679.99L385.459,3679.97L385.567,3679.95L385.674,3679.92L385.78,3679.9L385.885,3679.87L385.989,3679.85L386.092,3679.82L386.195,3679.79L386.296,3679.76L386.396,3679.73L386.495,3679.7L386.594,3679.66L386.691,3679.63L386.788,3679.6L386.883,3679.56L386.978,3679.53L387.071,3679.49L387.164,3679.45L387.256,3679.41L387.347,3679.38L387.437,3679.34L387.526,3679.29L387.614,3679.25L387.702,3679.21L387.788,3679.17L387.873,3679.12L387.958,3679.08L388.042,3679.04L388.125,3678.99L388.207,3678.94L388.288,3678.9L388.368,3678.85L388.447,3678.8L388.526,3678.75L388.603,3678.7L388.68,3678.66L388.756,3678.61L388.831,3678.55L388.905,3678.5L388.978,3678.45L389.051,3678.4L389.122,3678.35L389.192,3678.29L389.262,3678.24L389.331,3678.19L389.399,3678.13L389.466,3678.08L389.532,3678.02L389.598,3677.97L389.658,3677.91L389.788,3677.8L389.911,3677.69L390.03,3677.57L390.145,3677.46L390.257,3677.34L390.365,3677.22L390.47,3677.11L390.571,3676.99L390.668,3676.88L390.762,3676.76L390.852,3676.64L390.938,3676.53L391.02,3676.41L391.099,3676.3L391.174,3676.18L391.245,3676.07L391.312,3675.96L391.375,3675.85L391.435,3675.75L391.49,3675.64L391.542,3675.54L391.59,3675.44L391.634,3675.35L391.674,3675.25L391.71,3675.16L391.743,3675.08L391.772,3675L391.796,3674.92L391.818,3674.85L391.835,3674.78L391.85,3674.72L391.861,3674.67L391.869,3674.62L391.874,3674.59L391.877,3674.56L391.879,3674.53L391.879,3674.52L391.879,3653.95L391.88,3653.82L391.886,3653.68L391.895,3653.54L391.908,3653.4L391.924,3653.26L391.943,3653.12L391.967,3652.98L391.993,3652.85L392.023,3652.72L392.056,3652.58L392.093,3652.45L392.133,3652.32L392.176,3652.19L392.221,3652.06L392.271,3651.94L392.323,3651.81L392.378,3651.69L392.436,3651.57L392.497,3651.45L392.561,3651.33L392.627,3651.21L392.697,3651.1L392.768,3650.99L392.843,3650.88L392.92,3650.77L393,3650.66L393.082,3650.56L393.167,3650.45L393.255,3650.35L393.344,3650.25L393.436,3650.16L393.531,3650.06L393.627,3649.97L393.726,3649.88L393.827,3649.79L393.93,3649.71L394.035,3649.62L394.142,3649.54L394.252,3649.47L394.363,3649.39L394.476,3649.32L394.592,3649.25L394.709,3649.18L394.828,3649.11L394.948,3649.05L395.071,3648.99L395.195,3648.93L395.321,3648.88L395.449,3648.83L395.578,3648.78L395.708,3648.74L395.84,3648.7L395.974,3648.66L396.109,3648.62L396.245,3648.59L396.382,3648.56L396.521,3648.53L396.66,3648.51L396.801,3648.49L396.942,3648.47L397.085,3648.46L397.228,3648.45L397.372,3648.45L397.503,3648.45L414.368,3648.45L414.499,3648.45ZM397.516,3650.43L397.423,3650.43L397.331,3650.43L397.239,3650.44L397.147,3650.45L397.057,3650.46L396.967,3650.47L396.878,3650.49L396.789,3650.5L396.702,3650.52L396.615,3650.54L396.529,3650.56L396.444,3650.59L396.359,3650.62L396.276,3650.64L396.194,3650.68L396.112,3650.71L396.032,3650.74L395.952,3650.78L395.874,3650.82L395.797,3650.86L395.721,3650.9L395.646,3650.94L395.572,3650.99L395.499,3651.03L395.428,3651.08L395.358,3651.13L395.289,3651.18L395.222,3651.24L395.155,3651.29L395.091,3651.35L395.027,3651.41L394.965,3651.46L394.905,3651.53L394.846,3651.59L394.788,3651.65L394.732,3651.72L394.678,3651.78L394.625,3651.85L394.574,3651.92L394.524,3651.99L394.477,3652.06L394.431,3652.13L394.386,3652.2L394.344,3652.28L394.303,3652.35L394.264,3652.43L394.227,3652.51L394.192,3652.59L394.158,3652.66L394.127,3652.75L394.098,3652.83L394.07,3652.91L394.045,3652.99L394.022,3653.08L394,3653.16L393.981,3653.25L393.964,3653.33L393.95,3653.42L393.937,3653.51L393.927,3653.6L393.918,3653.69L393.913,3653.78L393.909,3653.87L393.908,3653.96L393.908,3674.53L393.907,3674.58L393.906,3674.63L393.9,3674.72L393.889,3674.82L393.874,3674.93L393.855,3675.04L393.832,3675.15L393.805,3675.26L393.773,3675.38L393.738,3675.5L393.698,3675.62L393.653,3675.75L393.605,3675.87L393.552,3676L393.495,3676.14L393.434,3676.27L393.369,3676.41L393.299,3676.54L393.225,3676.68L393.147,3676.82L393.065,3676.96L392.978,3677.1L392.887,3677.25L392.792,3677.39L392.693,3677.53L392.589,3677.68L392.481,3677.82L392.369,3677.97L392.253,3678.11L392.132,3678.26L392.007,3678.4L391.878,3678.55L391.744,3678.69L391.607,3678.83L391.465,3678.97L391.318,3679.12L391.168,3679.25L391.013,3679.39L390.934,3679.46L390.854,3679.53L390.772,3679.6L390.69,3679.66L390.607,3679.73L390.522,3679.8L390.437,3679.86L390.35,3679.93L390.263,3679.99L390.174,3680.05L390.084,3680.12L389.993,3680.18L389.901,3680.24L389.808,3680.3L389.714,3680.37L389.619,3680.43L389.523,3680.48L389.426,3680.54L389.327,3680.6L389.228,3680.66L389.127,3680.72L389.026,3680.77L388.923,3680.83L388.819,3680.88L388.714,3680.93L388.608,3680.99L388.501,3681.04L388.393,3681.09L388.284,3681.14L388.174,3681.19L388.062,3681.23L387.95,3681.28L387.836,3681.33L387.722,3681.37L387.606,3681.42L387.489,3681.46L387.371,3681.5L387.253,3681.54L387.133,3681.58L387.011,3681.62L386.889,3681.66L386.766,3681.69L386.642,3681.73L386.516,3681.76L386.39,3681.79L386.262,3681.83L386.133,3681.86L386.004,3681.88L385.873,3681.91L385.741,3681.94L385.608,3681.96L385.474,3681.99L385.338,3682.01L385.202,3682.03L414.355,3682.03L414.448,3682.03L414.54,3682.03L414.632,3682.02L414.723,3682.02L414.814,3682.01L414.904,3682.01L415.082,3681.99L415.256,3681.98L415.427,3681.95L415.595,3681.93L415.759,3681.9L415.918,3681.87L416.074,3681.84L416.225,3681.81L416.372,3681.77L416.513,3681.74L416.649,3681.7L416.78,3681.66L416.906,3681.62L417.025,3681.58L417.139,3681.54L417.246,3681.51L417.346,3681.47L417.44,3681.43L417.527,3681.39L417.607,3681.36L417.679,3681.32L417.744,3681.29L417.801,3681.26L417.849,3681.24L417.89,3681.21L417.921,3681.19L417.944,3681.17L417.952,3681.16L417.958,3681.16L417.962,3681.15L417.963,3681.14L417.963,3653.96L417.962,3653.87L417.958,3653.78L417.952,3653.69L417.944,3653.6L417.934,3653.51L417.921,3653.42L417.907,3653.33L417.89,3653.25L417.871,3653.16L417.849,3653.08L417.826,3652.99L417.801,3652.91L417.773,3652.83L417.744,3652.75L417.713,3652.66L417.679,3652.59L417.644,3652.51L417.607,3652.43L417.568,3652.35L417.527,3652.28L417.485,3652.2L417.44,3652.13L417.394,3652.06L417.346,3651.99L417.297,3651.92L417.246,3651.85L417.193,3651.78L417.139,3651.72L417.083,3651.65L417.025,3651.59L416.966,3651.53L416.906,3651.46L416.844,3651.41L416.78,3651.35L416.716,3651.29L416.649,3651.24L416.582,3651.18L416.513,3651.13L416.443,3651.08L416.372,3651.03L416.299,3650.99L416.225,3650.94L416.15,3650.9L416.074,3650.86L415.997,3650.82L415.918,3650.78L415.839,3650.74L415.759,3650.71L415.677,3650.68L415.595,3650.64L415.511,3650.62L415.427,3650.59L415.342,3650.56L415.256,3650.54L415.169,3650.52L415.082,3650.5L414.993,3650.49L414.904,3650.47L414.814,3650.46L414.723,3650.45L414.632,3650.44L414.54,3650.43L414.448,3650.43L414.355,3650.43L397.516,3650.43Z" style="fill:rgb(156,156,156);"/>
            </g>
            <g transform="matrix(0.564692,0,0,0.564692,400.287,207.956)">
                <path d="M7.94,13.255L15.5,20.858L23.176,13.182" style="fill:none;stroke:white;stroke-width:2.66px;"/>
            </g>
        </g>
    </g>
</svg>
